<svg width="412" height="428" viewBox="0 0 412 428" fill="none" xmlns="http://www.w3.org/2000/svg" class=""><g class="NotionCalendarIcon_appIcon__zxiL4"><g><path fill="white" d="M400.449 63.0026C407.907 69.9969 412 79.5934 412 90.0186V374.846C412 374.961 411.996 375.076 411.99 375.191C411.972 375.557 411.934 375.922 411.934 376.288L411.967 376.454C411.967 393.642 398.51 408.542 381.605 410.614C380.396 410.812 379.186 410.962 377.943 411.045L99.1882 427.917C98.3099 427.967 97.4481 428 96.5863 428C96.4869 428 96.3916 427.992 96.2963 427.983C96.201 427.975 96.1057 427.967 96.0063 427.967C95.8074 427.967 95.6127 427.975 95.4179 427.983C95.2232 427.992 95.0285 428 94.8296 428C84.9025 428 75.6051 424.354 68.4291 417.608C60.6565 410.299 56.331 400.271 56.331 389.399V375.857C56.331 373.106 55.8006 371.631 52.6021 371.631C52.6021 371.631 43.8351 371.797 42.9236 371.797C31.8529 371.797 21.4949 367.72 13.4903 360.195C4.82269 352.04 0.0497184 340.869 0.0497184 328.754L0 63.8644C0 39.2517 19.9868 17.987 44.5477 16.4622L309.166 0.0868577C321.247 -0.658982 332.699 3.41827 341.367 11.5562C350.034 19.6942 354.807 30.8486 354.807 42.9809V51.3509C354.807 51.3509 354.641 54.1519 358.271 54.0359L372.772 53.1575C383.163 52.4945 392.991 56.0083 400.449 63.0026Z"></path><path fill="black" d="M44.7135 354.346C37.2723 354.263 30.6598 352.358 25.5222 347.568C25.5222 347.568 25.5056 347.568 25.489 347.534C24.8924 346.954 24.3289 346.358 23.7986 345.761C19.7383 341.12 17.5341 335.17 17.5341 328.739L17.4844 63.8501C17.4844 48.519 30.4112 34.7624 45.7079 33.8176L310.293 17.4423C310.873 17.4092 311.436 17.3926 312.016 17.3926C318.629 17.3926 324.794 19.7793 329.501 24.2212C330.147 24.8344 330.76 25.4642 331.324 26.1272C332.307 27.25 333.181 28.4487 333.944 29.7144C333.182 28.4576 332.304 27.263 331.324 26.1438C335.285 30.7514 337.456 36.6187 337.456 42.9832V49.762C337.456 49.762 337.621 55.3144 332.119 55.679L332.152 55.7122L88.7972 70.9604C70.9483 72.0709 56.4471 87.5347 56.4471 105.418C56.4471 105.418 56.3476 349.905 56.331 350.302C56.1487 354.346 52.8176 354.346 50.0665 354.346H44.7135Z"></path><path fill="black" d="M394.583 376.042C394.616 375.644 394.649 375.246 394.649 374.848L394.583 88.5949C394.483 87.0866 394.234 85.6115 393.82 84.2027C392.859 80.9044 391.069 77.9376 388.533 75.5675C384.904 72.1698 380.164 70.3301 375.076 70.3301C374.629 70.3301 374.181 70.3466 373.734 70.3798L91.3333 88.0811C91.2339 88.0882 91.1344 88.1044 91.035 88.1206C90.9024 88.1423 90.7698 88.1639 90.6372 88.1639C81.6548 89.0921 74.1307 96.9483 73.5175 105.948C73.4844 106.346 73.4844 106.727 73.4844 107.125V387.594C73.4844 387.728 73.4929 387.859 73.5014 387.987C73.5095 388.112 73.5175 388.234 73.5175 388.356C73.6998 394.638 76.2023 400.372 80.6604 404.566C84.6379 408.311 89.7423 410.433 95.261 410.715H96.1394L378.391 393.627C378.474 393.627 378.557 393.614 378.639 393.602C378.7 393.593 378.761 393.584 378.822 393.579C378.844 393.578 378.866 393.577 378.888 393.577C387.224 392.036 394.002 384.544 394.583 376.042ZM117.767 379.721C108.105 380.4 99.5533 377.119 99.8185 364.456V167.355C99.8185 160.593 105.387 156.267 111.535 155.952L357.211 141.218C363.343 140.903 368.364 145.345 368.364 151.494V348.943C368.364 356.169 366.558 365.467 354.128 365.948H354.095L354.078 365.964L117.767 379.721Z"></path></g><g class="NotionCalendarIcon_dates__QiFn_" fill="black"><g class=""><path d="M174.562 217.013C163.157 217.718 159.28 226.422 159.296 239.799V242.151C157.935 242.471 156.797 242.775 155.419 242.855C147.202 243.367 141.275 236.695 141.259 224.726C141.243 206.421 157.646 189.187 188.898 187.251C216.723 185.523 234.535 198.964 234.567 222.678C234.583 240.519 219.766 253.176 205.173 257.144C232.549 258.489 243.97 273.754 244.002 293.227C244.034 326.558 219.654 345.455 182.01 347.808L181.097 347.871C152.808 349.632 132.946 338.895 132.93 320.349C132.93 309.789 140.666 300.844 152.296 300.124C153.209 300.06 154.122 300.252 155.035 300.188C157.342 319.069 170.125 326.014 182.891 325.23C195.21 324.462 203.875 316.173 203.859 304.428V303.964C203.843 285.643 188.546 284.731 165.511 283.819L161.843 261.977C183.276 258.057 193.992 251.048 193.976 238.375C193.976 224.758 186.416 216.309 174.562 217.045V217.013Z"></path><path d="M277.435 208.021C254.624 214.613 249.595 204.596 252.093 194.1C265.773 190.899 301.35 180.227 314.806 175.41L314.966 316.045L339.843 319.661C339.843 328.814 334.621 334.542 325.266 335.134C317.513 335.614 299.492 336.271 290.826 336.815C277.371 337.647 252.734 339.663 252.734 339.663C252.045 337.823 251.821 335.966 251.821 334.318C251.821 329.854 253.631 325.278 259.558 323.277L277.579 317.453L277.451 208.037L277.435 208.021Z"></path></g><g class=""><path d="M352.488 253.405C352.488 306.335 329.298 339.647 290.348 341.914C254.931 343.973 233.211 322.584 233.211 268.233C233.211 215.288 256.401 181.991 295.351 179.725C330.768 177.666 352.488 199.055 352.488 253.405ZM268.148 256.087C268.148 290.261 277.482 318.29 294.999 317.269C311.781 316.295 317.551 294.746 317.551 265.552C317.551 231.377 308.217 203.109 290.7 204.13C273.934 205.104 268.148 226.892 268.148 256.087Z"></path><path d="M156.808 218.278C145.258 218.99 141.348 227.806 141.364 241.36V243.746C139.989 244.078 138.829 244.376 137.437 244.459C129.118 244.973 123.12 238.212 123.103 226.082C123.087 207.523 139.69 190.074 171.324 188.103C199.494 186.346 217.522 199.967 217.556 223.994C217.556 242.073 202.576 254.915 187.811 258.925C215.517 260.284 227.084 275.744 227.117 295.496C227.15 329.284 202.46 348.423 164.364 350.792L163.436 350.842C134.802 352.632 114.702 341.745 114.686 322.954C114.686 312.249 122.507 303.202 134.288 302.456C135.216 302.39 136.128 302.572 137.056 302.522C139.392 321.645 152.334 328.687 165.259 327.892C177.72 327.113 186.486 318.712 186.486 306.814V306.333C186.469 287.774 170.992 286.846 147.661 285.919L143.949 263.78C165.657 259.803 176.494 252.711 176.477 239.869C176.477 226.066 168.838 217.499 156.824 218.261H156.808V218.278Z"></path></g><g class=""><path d="M162.173 216.369C150.106 217.119 146.478 226.712 146.957 241.445C136.712 244.43 128.977 237.886 128.961 224.063C128.945 205.802 144.847 188.643 177.628 186.6C205.389 184.876 224.536 201.253 224.568 223.727C224.6 247.144 212.325 264.303 180.712 295.78L163.659 312.763C195.288 311.502 216.241 308.549 226.023 301.861C230.13 305.58 232.4 311.071 232.416 318.094C232.416 332.38 216.737 341.558 201.026 342.532C185.779 343.474 124.102 345.453 124.102 345.453L120.666 332.316L150.665 294.135C171.123 268.038 181.575 254.039 181.559 237.646C181.559 224.063 174.016 215.635 162.189 216.369H162.173Z"></path><path d="M312.072 277.663C273.442 296.929 238.856 281.143 236.89 244.414C234.972 208.628 255.717 183.185 289.472 179.306C326.632 175.028 347.505 198.747 349.79 241.557C352.731 296.291 332.449 334.855 287.826 339.978C259.281 343.267 241.429 333.306 240.422 314.599C239.799 303.138 248.398 293.449 261.391 293.37C264.668 312.061 276.638 318.446 288.641 317.057C303.601 315.333 310.809 301.095 312.056 277.663H312.072ZM312.311 260.919C312.248 259.754 312.168 258.11 312.088 256.705C310.25 222.563 298.615 201.078 285.253 202.61C276.878 203.568 270.885 210.847 271.604 224.414C272.835 247.335 288.194 266.043 312.311 260.919Z"></path></g><g class=""><path d="M159.858 216.236C147.791 216.986 144.163 226.58 144.643 241.312C134.398 244.297 126.662 237.753 126.646 223.93C126.63 205.669 142.533 188.51 175.313 186.467C203.075 184.743 222.222 201.12 222.254 223.595C222.286 247.011 210.011 264.17 178.398 295.647L161.344 312.63C192.974 311.369 213.911 308.416 223.692 301.728C227.8 305.447 230.069 310.938 230.085 317.961C230.085 332.247 214.407 341.426 198.696 342.399C183.448 343.341 121.772 345.32 121.772 345.32L118.352 332.184L148.351 294.019C168.808 267.921 179.261 253.922 179.245 237.529C179.245 223.946 171.701 215.518 159.874 216.252L159.858 216.236Z"></path><path d="M294.287 338.808C254.682 341.266 237.133 323.389 237.117 302.319C237.101 284.522 248.001 269.789 264.607 261.728C249.344 249.788 244.549 239.78 244.533 226.197C244.501 203.244 261.554 181.104 297.068 178.902C327.562 177.002 344.2 191.895 344.216 211.799C344.232 229.597 334.003 240.547 322.4 248.527C345.175 261.632 352.479 272.422 352.495 287.874C352.527 315.743 328.425 336.685 294.287 338.808ZM294.91 282.095L279.423 272.981C272.598 280.659 270.105 287.618 270.121 296.046C270.121 310.795 280.382 317.196 296.556 316.19C307.248 315.52 313.849 310.188 313.833 302C313.833 295.216 309.502 290.555 294.926 282.095H294.91ZM293.679 200.434C282.3 201.137 277.984 207.505 277.984 214.529C277.984 220.849 280.27 225.399 291.202 231.512L308.063 241.009C313.066 233.667 314.872 227.697 314.872 219.732C314.872 207.09 306.433 199.652 293.679 200.434Z"></path></g><g class=""><path d="M166.392 215.108C154.325 215.859 150.697 225.452 151.176 240.185C140.931 243.17 133.196 236.625 133.18 222.802C133.164 204.526 149.066 187.383 181.846 185.339C209.608 183.616 228.755 199.977 228.787 222.467C228.819 245.883 216.544 263.042 184.931 294.535L167.878 311.518C199.507 310.257 220.444 307.304 230.226 300.616C234.333 304.336 236.603 309.826 236.619 316.85C236.619 331.136 220.94 340.314 205.229 341.287C189.982 342.229 128.305 344.208 128.305 344.208L124.885 331.072L154.884 292.891C175.342 266.793 185.794 252.794 185.778 236.402C185.778 222.818 178.235 214.39 166.408 215.124L166.392 215.108Z"></path><path d="M286.726 338.558L284.903 338.67C267.371 339.756 254.617 330.242 254.601 312.924C254.601 304.017 257.541 293.306 263.902 280.952C268.665 271.758 275.266 261.973 281.627 252.444L307.071 214.087C297.961 216.067 282.49 218.892 267.243 219.85C249.949 220.919 238.33 212.284 238.314 196.817C238.314 192.826 239.209 188.085 241.031 183.057C253.098 184.175 279.949 183.217 304.082 181.717C320.928 180.663 338.445 179.338 346.868 178.349C329.606 211.98 299.639 286.922 286.726 338.558Z"></path></g><g class=""><path d="M161.189 215.847C149.122 216.597 145.494 226.19 145.973 240.923C135.728 243.908 127.993 237.363 127.977 223.54C127.961 205.28 143.864 188.121 176.644 186.078C204.405 184.354 223.552 200.731 223.584 223.205C223.616 246.621 211.342 263.78 179.728 295.257L162.675 312.241C194.304 310.98 215.242 308.027 225.023 301.339C229.13 305.058 231.4 310.549 231.416 317.572C231.416 331.858 215.737 341.036 200.026 342.01C184.779 342.951 123.102 344.93 123.102 344.93L119.666 331.794L149.665 293.613C170.123 267.515 180.575 253.517 180.559 237.124C180.559 223.54 173.016 215.112 161.189 215.847Z"></path><path d="M274.634 249.175C314.671 231.218 349.96 241.673 350.008 278.449C350.04 312.177 328 336.263 294.772 338.338C251.3 341.052 236.021 310.134 235.973 271.49C235.909 219.263 257.725 180.906 298.241 178.384C326.913 176.357 344.238 187.227 344.254 205.966C344.254 217.443 335.176 226.669 322.198 226.078C319.897 208.887 310.563 200.108 298.496 200.858C281.427 201.928 275.529 219.151 274.65 249.191L274.634 249.175ZM274.427 265.345C275.609 298.066 285.63 316.183 298.384 315.385C306.807 314.858 314.543 307.819 314.527 294.236C314.495 271.282 298.784 260.779 274.427 265.345Z"></path></g><g class=""><path d="M162.692 215.653C150.625 216.403 146.997 225.997 147.477 240.729C137.232 243.714 129.496 237.17 129.48 223.347C129.464 205.086 145.367 187.927 178.147 185.884C205.909 184.16 225.056 200.537 225.088 223.012C225.12 246.428 212.845 263.587 181.232 295.064L164.178 312.047C195.808 310.786 216.761 307.833 226.542 301.145C230.65 304.864 232.919 310.355 232.935 317.378C232.935 331.664 217.256 340.842 201.545 341.816C186.298 342.758 124.622 344.737 124.622 344.737L121.186 331.601L151.185 293.436C171.642 267.338 182.095 253.339 182.079 236.946C182.079 223.363 174.535 214.935 162.708 215.669L162.692 215.653Z"></path><path d="M287.34 338.832C258.668 340.843 238.626 330.148 238.594 311.425C238.594 299.948 247.672 290.722 260.65 291.313C262.951 310.148 275.242 317.107 287.996 316.309C300.063 315.559 309.38 307.243 309.364 295.543C309.348 274.457 289.306 265.646 250.165 272.526L250.069 184.703L300.366 181.575C312.433 180.825 323.589 179.42 334.505 176.643C336.551 180.027 337.925 184.624 337.925 189.54C337.925 203.363 327.488 216.659 306.312 217.968C292.199 218.846 279.908 217.968 269.664 216.978L269.696 241.097C320.44 229.971 348.681 245.311 348.729 281.145C349.001 316.501 326.034 336.437 287.34 338.832Z"></path></g><g class=""><path d="M159.831 215.799C147.764 216.549 144.136 226.142 144.6 240.875C134.355 243.86 126.619 237.316 126.603 223.493C126.587 205.232 142.49 188.073 175.27 186.03C203.032 184.306 222.179 200.667 222.211 223.157C222.243 246.573 209.968 263.732 178.355 295.209L161.301 312.193C192.931 310.932 213.868 307.979 223.665 301.291C227.773 305.01 230.042 310.501 230.058 317.524C230.058 331.81 214.379 340.988 198.668 341.962C183.421 342.904 121.745 344.883 121.745 344.883L118.324 331.746L148.323 293.565C168.781 267.468 179.234 253.469 179.218 237.076C179.218 223.493 171.674 215.065 159.847 215.799H159.831Z"></path><path d="M332.235 306.958L332.474 310.933C333.625 330.997 324.084 336.519 310.419 337.365C304.953 337.701 298.576 336.695 293.349 334.221L294.005 308.65L240.287 311.986L233.207 292.289C245.466 259.679 276.136 203.429 294.085 179.821L332.107 183.54L332.219 280.733C339.043 280.302 344.046 279.296 349.736 277.301C356.113 286.032 354.546 307.213 332.235 306.958ZM255.279 286.686L294.884 284.228L294.804 209.989C282.753 228.314 262.775 267.261 255.279 286.702V286.686Z"></path></g><g class=""><path d="M161.647 215.7C149.58 216.45 145.952 226.043 146.432 240.776C136.187 243.761 128.452 237.217 128.436 223.394C128.42 205.133 144.322 187.974 177.102 185.931C204.864 184.207 224.011 200.584 224.043 223.059C224.075 246.475 211.8 263.634 180.187 295.111L163.134 312.094C194.763 310.833 215.716 307.88 225.497 301.192C229.605 304.911 231.874 310.402 231.89 317.425C231.89 331.711 216.211 340.889 200.501 341.863C185.253 342.805 123.577 344.784 123.577 344.784L120.141 331.647L150.14 293.467C170.597 267.369 181.05 253.37 181.034 236.977C181.034 223.394 173.49 214.966 161.663 215.7H161.647Z"></path><path d="M279.085 208.39C267.706 209.092 263.854 217.776 263.854 231.12V233.466C262.496 233.786 261.361 234.089 259.986 234.169C251.787 234.679 245.874 228.023 245.858 216.084C245.842 197.823 262.208 180.632 293.39 178.701C321.151 176.977 338.924 190.385 338.956 214.041C338.972 231.838 324.204 244.48 309.628 248.423C336.942 249.763 348.338 264.991 348.37 284.417C348.402 317.681 324.076 336.516 286.517 338.863L285.606 338.927C257.381 340.682 237.563 329.972 237.547 311.472C237.547 300.937 245.266 292.015 256.87 291.296C257.781 291.232 258.692 291.424 259.603 291.36C261.904 310.195 274.658 317.123 287.396 316.325C299.687 315.558 308.317 307.29 308.317 295.574V295.111C308.302 276.835 293.038 275.925 270.055 275.015L266.395 253.227C287.78 249.316 298.472 242.325 298.456 229.683C298.456 216.1 290.912 207.672 279.085 208.406V208.39Z"></path></g><g class=""><path d="M161.991 215.592C149.925 216.342 146.297 225.935 146.776 240.668C136.531 243.653 128.796 237.108 128.78 223.285C128.764 205.025 144.666 187.866 177.446 185.823C205.208 184.099 224.355 200.476 224.387 222.95C224.419 246.366 212.144 263.525 180.531 295.002L163.478 311.986C195.107 310.725 216.044 307.772 225.825 301.084C229.933 304.803 232.202 310.294 232.218 317.317C232.218 331.603 216.54 340.781 200.829 341.755C185.582 342.696 123.905 344.676 123.905 344.676L120.469 331.539L150.468 293.374C170.926 267.276 181.378 253.278 181.362 236.885C181.362 223.301 173.818 214.873 161.991 215.608V215.592Z"></path><path d="M277.608 208.393C265.542 209.143 261.914 218.736 262.393 233.469C252.148 236.454 244.413 229.909 244.397 216.086C244.381 197.826 260.283 180.667 293.064 178.624C320.825 176.9 339.972 193.261 340.004 215.751C340.036 239.167 327.762 256.326 296.148 287.803L279.095 304.787C310.724 303.526 331.661 300.573 341.443 293.885C345.55 297.604 347.82 303.095 347.836 310.118C347.836 324.404 332.157 333.582 316.446 334.556C301.199 335.497 239.522 337.477 239.522 337.477L236.086 324.34L266.085 286.159C286.543 260.061 296.995 246.063 296.979 229.67C296.979 216.086 289.436 207.658 277.608 208.393Z"></path></g><g class=""><path d="M173.745 214.873C161.678 215.623 158.05 225.216 158.53 239.949C148.285 242.934 140.549 236.39 140.533 222.567C140.517 204.306 156.42 187.147 189.2 185.104C216.962 183.38 236.109 199.757 236.141 222.231C236.173 245.647 223.898 262.806 192.285 294.283L175.231 311.267C206.861 310.006 227.814 307.053 237.595 300.365C241.703 304.084 243.972 309.575 243.988 316.598C243.988 330.884 228.309 340.062 212.598 341.036C197.351 341.978 135.675 343.957 135.675 343.957L132.238 330.82L162.237 292.655C182.695 266.558 193.148 252.559 193.132 236.166C193.132 222.583 185.588 214.155 173.761 214.889L173.745 214.873Z"></path><path d="M274.115 206.047C251.356 212.623 246.337 202.615 248.83 192.16C262.479 188.968 297.977 178.321 311.402 173.517L311.562 313.806L336.383 317.413C336.383 326.543 331.156 332.258 321.839 332.848C314.103 333.327 296.123 333.982 287.476 334.524C274.051 335.354 249.47 337.366 249.47 337.366C248.782 335.53 248.559 333.678 248.559 332.034C248.559 327.581 250.365 323.016 256.294 321.021L274.275 315.21L274.147 206.063L274.115 206.047Z"></path></g><g class=""><path d="M157.311 216.507C145.306 217.253 141.697 226.797 142.158 241.454C131.966 244.424 124.27 237.913 124.254 224.161C124.238 205.995 140.059 188.924 172.67 186.891C200.289 185.176 219.337 201.469 219.369 223.828C219.401 247.123 207.19 264.194 175.739 295.508L158.773 312.404C190.24 311.15 211.069 308.212 220.8 301.559C224.886 305.259 227.144 310.721 227.16 317.708C227.16 331.921 211.562 341.051 195.932 342.02C180.763 342.957 119.404 344.926 119.404 344.926L116.002 331.857L145.847 293.889C166.199 267.925 176.598 253.999 176.582 237.675C176.582 224.161 169.093 215.777 157.311 216.507Z"></path><path d="M349.831 250.538C349.831 303.227 326.76 336.399 288.011 338.654C252.776 340.703 231.168 319.408 231.168 265.306C231.168 212.601 254.239 179.445 292.988 177.19C328.223 175.141 349.831 196.436 349.831 250.538ZM265.926 253.206C265.926 287.236 275.212 315.137 292.638 314.12C309.334 313.152 315.073 291.698 315.073 262.638C315.073 228.608 305.787 200.469 288.361 201.486C271.682 202.454 265.926 224.146 265.926 253.206Z"></path></g><g class=""><path d="M157.212 215.345C134.57 221.887 129.577 211.93 132.058 201.529C145.637 198.353 180.951 187.761 194.307 182.966L194.466 322.532L219.159 326.121C219.159 335.204 213.976 340.889 204.69 341.477C196.995 341.953 179.107 342.604 170.505 343.144C157.149 343.97 132.694 345.955 132.694 345.955C132.01 344.129 131.788 342.287 131.788 340.651C131.788 336.221 133.585 331.679 139.468 329.694L157.355 323.914L157.228 215.329L157.212 215.345Z"></path><path d="M297.164 278.194C258.734 297.722 224.326 281.721 222.37 244.495C220.462 208.223 241.101 182.434 274.682 178.503C311.65 174.167 332.415 198.208 334.689 241.599C337.615 297.075 317.437 336.162 273.044 341.355C244.646 344.688 226.885 334.593 225.884 315.631C225.264 304.015 233.818 294.195 246.745 294.114C250.005 313.059 261.914 319.53 273.855 318.123C288.722 316.376 295.908 301.944 297.149 278.194H297.164ZM297.403 261.223C297.339 260.042 297.26 258.376 297.18 256.952C295.352 222.346 283.776 200.57 270.484 202.123C262.152 203.094 256.19 210.472 256.905 224.223C258.129 247.455 273.409 266.417 297.403 261.223Z"></path></g><g class=""><path d="M156.361 215.502C133.719 222.045 128.726 212.088 131.206 201.687C144.785 198.511 180.099 187.919 193.455 183.14L193.615 322.706L218.308 326.295C218.308 335.378 213.108 341.063 203.838 341.651C196.143 342.127 178.255 342.778 169.653 343.318C156.297 344.144 131.842 346.145 131.842 346.145C131.158 344.318 130.936 342.476 130.936 340.841C130.936 336.41 132.733 331.869 138.616 329.884L156.503 324.104L156.376 215.518L156.361 215.502Z"></path><path d="M279.147 340.612C239.746 343.105 222.287 324.976 222.272 303.61C222.256 285.562 233.099 270.622 249.62 262.448C234.435 250.34 229.665 240.191 229.649 226.416C229.618 203.14 246.583 180.689 281.897 178.456C312.235 176.529 328.787 191.631 328.803 211.816C328.819 229.864 318.643 240.968 307.099 249.061C329.757 262.35 337.023 273.292 337.039 288.961C337.071 317.223 313.093 338.459 279.131 340.612H279.147ZM279.767 283.101L264.359 273.859C257.57 281.645 255.09 288.702 255.106 297.248C255.122 312.205 265.313 318.696 281.404 317.676C292.041 316.996 298.608 311.59 298.592 303.286C298.592 296.407 294.284 291.68 279.783 283.101H279.767ZM278.542 200.275C267.222 200.987 262.928 207.446 262.928 214.568C262.928 220.978 265.202 225.591 276.078 231.79L292.853 241.421C297.829 233.975 299.626 227.938 299.626 219.861C299.626 207.041 291.231 199.498 278.542 200.291V200.275Z"></path></g><g class="NotionCalendarIcon_current__Iwe8x"><path d="M168.028 214.675C145.386 221.217 140.394 211.26 142.874 200.859C156.453 197.683 191.767 187.092 205.124 182.296L205.283 321.863L229.976 325.451C229.976 334.535 224.792 340.219 215.506 340.807C207.811 341.283 189.923 341.934 181.321 342.474C167.965 343.3 143.51 345.285 143.51 345.285C142.827 343.459 142.604 341.617 142.604 339.981C142.604 335.551 144.401 331.009 150.284 329.024L168.172 323.244L168.044 214.659L168.028 214.675Z"></path><path d="M275.513 340.809L273.701 340.92C256.258 342 243.57 332.535 243.554 315.306C243.554 306.445 246.48 295.79 252.808 283.515C257.546 274.368 264.113 264.634 270.441 255.154L295.754 216.995C286.691 218.964 271.3 221.775 256.131 222.727C238.927 223.791 227.367 215.2 227.352 199.829C227.352 195.859 228.242 191.143 230.055 186.14C242.059 187.252 268.772 186.299 292.781 184.807C309.54 183.759 326.966 182.441 335.346 181.456C318.174 214.915 288.361 289.47 275.513 340.841V340.809Z"></path></g><g class=""><path d="M157.937 215.567C135.295 222.11 130.302 212.153 132.783 201.752C146.361 198.576 181.676 187.984 195.032 183.188L195.191 322.755L219.884 326.344C219.884 335.427 214.684 341.112 205.415 341.7C197.719 342.176 179.831 342.827 171.229 343.367C157.873 344.193 133.419 346.178 133.419 346.178C132.735 344.351 132.512 342.509 132.512 340.874C132.512 336.443 134.309 331.902 140.192 329.917L158.08 324.137L157.952 215.551L157.937 215.567Z"></path><path d="M259.113 250.853C298.943 232.74 334.051 243.286 334.098 280.382C334.13 314.402 312.204 338.698 279.147 340.791C235.899 343.528 220.698 312.341 220.651 273.362C220.587 220.681 242.291 181.992 282.598 179.448C311.123 177.403 328.358 188.367 328.374 207.269C328.374 218.846 319.343 228.152 306.432 227.556C304.142 210.216 294.857 201.36 282.852 202.117C265.871 203.196 260.003 220.568 259.129 250.87L259.113 250.853ZM258.906 267.163C260.083 300.169 270.052 318.443 282.741 317.638C291.12 317.107 298.816 310.007 298.8 296.305C298.768 273.153 283.138 262.559 258.906 267.163Z"></path></g><g class=""><path d="M156.187 215.551C133.545 222.094 128.552 212.137 131.032 201.736C144.611 198.56 179.926 187.968 193.282 183.188L193.441 322.755L218.134 326.344C218.134 335.427 212.95 341.112 203.665 341.7C195.969 342.176 178.081 342.827 169.479 343.367C156.123 344.193 131.669 346.193 131.669 346.193C130.985 344.367 130.762 342.525 130.762 340.89C130.762 336.459 132.559 331.918 138.442 329.933L156.33 324.153L156.203 215.567L156.187 215.551Z"></path><path d="M272.498 341.121C243.973 343.177 224.034 332.244 224.002 313.104C224.002 301.372 233.033 291.941 245.944 292.545C248.234 311.799 260.461 318.913 273.149 318.097C285.154 317.331 294.424 308.829 294.408 296.869C294.392 275.314 274.453 266.307 235.514 273.34L235.418 183.563L285.456 180.365C297.461 179.598 308.543 178.162 319.419 175.323C321.454 178.782 322.822 183.482 322.822 188.507C322.822 202.638 312.439 216.23 291.371 217.568C277.331 218.466 265.104 217.568 254.912 216.556L254.944 241.211C305.427 229.839 333.522 245.519 333.57 282.151C333.841 318.293 310.992 338.673 272.498 341.121Z"></path></g><g class=""><path d="M157.437 215.471C134.795 222.014 129.802 212.057 132.282 201.656C145.861 198.48 181.176 187.888 194.532 183.108L194.691 322.675L219.384 326.264C219.384 335.347 214.184 341.032 204.899 341.619C197.203 342.096 179.315 342.747 170.713 343.287C157.357 344.113 132.903 346.113 132.903 346.113C132.219 344.287 131.996 342.445 131.996 340.81C131.996 336.379 133.793 331.838 139.676 329.853L157.564 324.072L157.437 215.487V215.471Z"></path><path d="M315.967 309.153L316.205 313.148C317.35 333.328 307.858 338.862 294.263 339.712C288.825 340.049 282.481 339.039 277.282 336.536L277.933 310.838L224.493 314.19L217.449 294.395C229.645 261.623 260.141 205.092 278.013 181.367L315.84 185.105L315.951 282.781C322.74 282.348 327.717 281.338 333.377 279.332C339.722 288.107 338.163 309.394 315.967 309.137V309.153ZM239.407 288.781L278.808 286.31L278.728 211.702C266.756 230.101 246.864 269.258 239.423 288.797L239.407 288.781Z"></path></g><g class=""><path d="M158.144 215.727C135.502 222.27 130.509 212.313 132.99 201.912C146.568 198.736 181.883 188.144 195.239 183.349L195.398 322.915L220.091 326.504C220.091 335.587 214.907 341.272 205.622 341.86C197.926 342.336 180.038 342.987 171.436 343.527C158.08 344.353 133.626 346.338 133.626 346.338C132.942 344.512 132.719 342.67 132.719 341.034C132.719 336.604 134.516 332.062 140.399 330.077L158.287 324.297L158.16 215.711L158.144 215.727Z"></path><path d="M267.299 210.16C255.978 210.866 252.13 219.593 252.146 233.004V235.362C250.795 235.683 249.666 235.988 248.299 236.068C240.142 236.581 234.259 229.892 234.243 217.892C234.227 199.541 250.509 182.264 281.53 180.323C309.164 178.59 326.83 192.065 326.861 215.839C326.877 233.726 312.185 246.431 297.685 250.393C324.858 251.741 336.195 267.044 336.227 286.567C336.258 319.998 312.058 338.927 274.693 341.285L273.786 341.35C245.707 343.114 225.991 332.35 225.975 313.758C225.975 303.17 233.654 294.203 245.198 293.481C246.104 293.417 247.011 293.609 247.917 293.545C250.207 312.475 262.895 319.437 275.567 318.635C287.795 317.865 296.397 309.555 296.381 297.78V297.315C296.365 278.947 281.18 278.033 258.316 277.119L254.675 255.222C275.949 251.291 286.586 244.265 286.57 231.56C286.57 217.909 279.065 209.439 267.299 210.176V210.16Z"></path></g><g class=""><path d="M159.093 215.752C136.451 222.295 131.458 212.338 133.939 201.937C147.518 198.761 182.832 188.169 196.188 183.39L196.347 322.956L221.04 326.545C221.04 335.628 215.841 341.313 206.571 341.901C198.875 342.377 180.987 343.028 172.385 343.568C159.029 344.394 134.575 346.395 134.575 346.395C133.891 344.568 133.668 342.726 133.668 341.091C133.668 336.66 135.465 332.119 141.348 330.134L159.236 324.354L159.109 215.768L159.093 215.752Z"></path><path d="M267.416 210.187C255.411 210.942 251.802 220.592 252.279 235.413C242.087 238.416 234.391 231.832 234.376 217.927C234.36 199.557 250.18 182.296 282.792 180.24C310.41 178.506 329.459 194.981 329.49 217.59C329.522 241.146 317.311 258.407 285.86 290.072L268.895 307.157C300.361 305.889 321.206 302.918 330.921 296.19C335.008 299.931 337.266 305.455 337.281 312.52C337.281 326.892 321.683 336.125 306.054 337.104C290.885 338.051 229.51 340.042 229.51 340.042L226.107 326.827L255.952 288.434C276.304 262.181 286.703 248.099 286.687 231.608C286.687 217.943 279.182 209.465 267.416 210.203V210.187Z"></path></g><g class=""><path d="M170.351 215.203C147.709 221.745 142.716 211.789 145.197 201.387C158.775 198.211 194.09 187.62 207.446 182.84L207.605 322.406L232.298 325.995C232.298 335.078 227.114 340.763 217.829 341.351C210.133 341.827 192.245 342.478 183.643 343.018C170.287 343.844 145.833 345.845 145.833 345.845C145.149 344.019 144.926 342.177 144.926 340.541C144.926 336.111 146.723 331.569 152.606 329.584L170.494 323.804L170.367 215.219L170.351 215.203Z"></path><path d="M267.04 209.184C244.398 215.711 239.406 205.77 241.886 195.369C255.465 192.193 290.779 181.601 304.135 176.821L304.294 316.388L328.987 319.977C328.987 329.06 323.804 334.745 314.518 335.332C306.822 335.809 288.935 336.46 280.333 337C266.977 337.825 242.522 339.826 242.522 339.826C241.838 338 241.616 336.158 241.616 334.522C241.616 330.092 243.412 325.55 249.296 323.565L267.183 317.801L267.056 209.216L267.04 209.184Z"></path></g><g class=""><path d="M155.963 214.062C132.939 220.724 127.862 210.586 130.384 199.994C144.192 196.76 180.102 185.975 193.684 181.092L193.845 323.209L218.955 326.864C218.955 336.113 213.684 341.902 204.242 342.5C196.416 342.985 178.227 343.648 169.48 344.198C155.898 345.039 131.031 347.06 131.031 347.06C130.336 345.2 130.109 343.325 130.109 341.659C130.109 337.148 131.936 332.523 137.919 330.502L156.108 324.616L155.979 214.046L155.963 214.062Z"></path><path d="M339.712 250.202C339.712 303.854 316.252 337.633 276.849 339.929C241.02 342.015 219.047 320.331 219.047 265.24C219.047 211.572 242.507 177.81 281.91 175.513C317.739 173.428 339.712 195.111 339.712 250.202ZM254.391 252.919C254.391 287.571 263.833 315.982 281.554 314.947C298.531 313.96 304.368 292.115 304.368 262.524C304.368 227.872 294.925 199.219 277.205 200.253C260.244 201.24 254.391 223.328 254.391 252.919Z"></path></g><g class=""><path d="M255.362 280.47C216.283 299.987 181.294 283.995 179.306 246.788C177.365 210.535 198.352 184.76 232.5 180.831C270.091 176.497 291.207 200.526 293.519 243.894C296.494 299.34 275.977 338.407 230.834 343.597C201.957 346.928 183.897 336.838 182.879 317.887C182.248 306.277 190.947 296.462 204.092 296.381C207.406 315.316 219.516 321.784 231.659 320.377C246.793 318.631 254.085 304.207 255.346 280.47H255.362ZM255.604 263.524C255.54 262.343 255.459 260.678 255.378 259.255C253.519 224.667 241.748 202.903 228.231 204.455C219.759 205.425 213.696 212.799 214.423 226.543C215.668 249.763 231.206 268.714 255.604 263.524Z"></path></g><g class=""><path d="M233.708 342.84C193.642 345.331 175.889 327.22 175.873 305.876C175.857 287.846 186.884 272.922 203.683 264.756C188.242 252.661 183.392 242.522 183.375 228.762C183.343 205.509 200.595 183.081 236.521 180.85C267.37 178.926 284.202 194.012 284.218 214.176C284.234 232.206 273.887 243.298 262.148 251.383C285.188 264.659 292.577 275.59 292.594 291.242C292.626 319.475 268.244 340.69 233.708 342.84ZM234.339 285.389L218.671 276.156C211.767 283.933 209.245 290.983 209.261 299.521C209.277 314.462 219.641 320.946 236.004 319.928C246.821 319.249 253.498 313.848 253.482 305.553C253.482 298.68 249.1 293.959 234.355 285.389H234.339ZM233.094 202.647C221.582 203.359 217.216 209.81 217.216 216.925C217.216 223.328 219.528 227.937 230.587 234.13L247.645 243.751C252.706 236.313 254.533 230.282 254.533 222.213C254.533 209.406 245.996 201.871 233.094 202.663V202.647Z"></path></g><g class=""><path d="M233.193 342.611L231.35 342.724C213.613 343.824 200.711 334.187 200.695 316.642C200.695 307.619 203.669 296.769 210.104 284.254C214.923 274.94 221.6 265.028 228.035 255.374L253.776 216.518C244.56 218.523 228.908 221.385 213.484 222.355C195.989 223.439 184.235 214.691 184.219 199.022C184.219 194.98 185.124 190.193 186.968 185.084C199.175 186.215 226.338 185.245 250.752 183.725C267.794 182.658 285.514 181.316 294.035 180.313C276.573 214.384 246.257 290.301 233.193 342.611Z"></path></g><g class=""><path d="M215.924 251.324C256.426 233.132 292.126 243.724 292.175 280.979C292.207 315.146 269.911 339.547 236.296 341.649C192.318 344.398 176.861 313.076 176.813 273.929C176.748 221.021 198.818 182.149 239.805 179.61C268.811 177.556 286.338 188.568 286.354 207.552C286.354 219.178 277.17 228.524 264.041 227.926C261.713 210.511 252.271 201.617 240.064 202.377C222.796 203.461 216.83 220.908 215.94 251.34L215.924 251.324ZM215.714 267.704C216.91 300.852 227.048 319.205 239.95 318.396C248.471 317.863 256.297 310.732 256.281 296.971C256.248 273.719 240.355 263.079 215.714 267.704Z"></path></g><g class=""><path d="M227.718 342.901C198.712 344.939 178.437 334.105 178.404 315.138C178.404 303.511 187.588 294.165 200.717 294.763C203.045 313.844 215.478 320.894 228.381 320.086C240.588 319.326 250.014 310.901 249.998 299.048C249.982 277.688 229.707 268.762 190.11 275.731L190.013 186.764L240.895 183.595C253.102 182.835 264.388 181.412 275.431 178.599C277.501 182.027 278.891 186.684 278.891 191.664C278.891 205.667 268.333 219.137 246.91 220.463C232.633 221.352 220.2 220.463 209.836 219.46L209.868 243.893C261.203 232.622 289.773 248.162 289.821 284.463C290.096 320.28 266.862 340.46 227.718 342.901Z"></path></g><g class=""><path d="M272.436 310.497L272.678 314.524C273.843 334.865 264.19 340.444 250.366 341.301C244.836 341.641 238.385 340.622 233.098 338.099L233.761 312.195L179.419 315.575L172.256 295.621C184.657 262.586 215.685 205.603 233.842 181.688L272.306 185.455L272.42 283.914C279.324 283.477 284.384 282.459 290.14 280.437C296.591 289.282 295.007 310.74 272.436 310.481V310.497ZM194.585 289.961L234.65 287.471L234.569 212.265C222.394 230.812 202.168 270.283 194.601 289.978L194.585 289.961Z"></path></g><g class=""><path d="M219.6 211.417C208.088 212.128 204.175 220.925 204.191 234.443V236.82C202.817 237.143 201.669 237.45 200.279 237.531C191.984 238.049 186.002 231.306 185.986 219.211C185.97 200.712 202.526 183.297 234.071 181.341C262.155 179.594 280.135 193.177 280.167 217.141C280.183 235.17 265.244 247.977 250.498 251.971C278.13 253.329 289.658 268.755 289.69 288.434C289.723 322.132 265.114 341.213 227.118 343.59L226.197 343.654C197.643 345.433 177.594 334.583 177.578 315.842C177.578 305.17 185.388 296.131 197.126 295.403C198.047 295.339 198.969 295.533 199.891 295.468C202.219 314.549 215.121 321.566 228.008 320.758C240.441 319.982 249.172 311.606 249.172 299.737V299.268C249.156 280.753 233.715 279.832 210.465 278.894L206.762 256.822C228.396 252.86 239.212 245.778 239.196 232.971C239.196 219.211 231.565 210.673 219.6 211.417Z"></path></g><g class=""><path d="M217.06 211.119C204.853 211.879 201.183 221.597 201.668 236.522C191.304 239.546 183.478 232.916 183.462 218.913C183.446 200.414 199.534 183.032 232.695 180.962C260.78 179.216 280.15 195.806 280.182 218.573C280.214 242.295 267.797 259.677 235.816 291.564L218.564 308.769C250.561 307.492 271.742 304.5 281.637 297.725C285.793 301.493 288.089 307.055 288.105 314.17C288.105 328.642 272.243 337.94 256.35 338.926C240.925 339.88 178.531 341.885 178.531 341.885L175.055 328.577L205.403 289.899C226.099 263.461 236.673 249.28 236.657 232.673C236.657 218.913 229.025 210.375 217.06 211.119Z"></path></g><g class=""><path d="M216.527 208.217C193.503 214.879 188.426 204.74 190.948 194.149C204.756 190.915 240.667 180.129 254.248 175.246L254.41 317.364L279.519 321.018C279.519 330.267 274.232 336.056 264.806 336.654C256.981 337.139 238.791 337.802 230.044 338.352C216.462 339.193 191.595 341.214 191.595 341.214C190.9 339.355 190.674 337.479 190.674 335.814C190.674 331.302 192.501 326.678 198.483 324.656L216.673 318.77L216.543 208.2L216.527 208.217Z"></path></g></g></g></svg>