
<svg width="420" height="165" viewBox="0 0 420 165" fill="none" xmlns="http://www.w3.org/2000/svg">
<path d="M355.712 137.764C350.389 137.764 345.585 136.725 341.301 134.648C337.146 132.57 333.835 129.779 331.304 126.274C328.902 122.703 327.733 118.549 327.733 113.875C327.733 109.201 329.681 102.774 333.641 99.0093C337.536 95.1793 343.183 92.5827 350.519 91.1546L369.668 87.2597C373.498 86.4807 376.095 85.3122 377.523 83.6893C378.951 82.0665 379.665 79.6646 379.665 76.4838L381.613 95.6337L354.154 101.541C350.454 102.32 347.532 103.683 345.455 105.631C343.508 107.578 342.534 110.304 342.534 113.81C342.534 117.315 343.897 120.301 346.624 122.508C349.48 124.716 353.245 125.754 358.049 125.754C362.852 125.754 365.579 124.91 368.825 123.158C372.2 121.405 374.797 119.003 376.679 115.952C378.627 112.771 379.6 109.201 379.6 105.176V76.5487C379.6 72.6538 378.172 69.5379 375.316 67.3957C372.59 65.1236 368.825 63.9552 364.021 63.9552C359.217 63.9552 353.245 65.5131 349.934 68.5641C346.689 71.6151 344.741 75.8995 344.222 81.4822L329.811 79.5348C330.33 73.7573 332.083 68.8237 335.069 64.6692C337.99 60.3848 341.95 57.1391 346.818 54.8671C351.752 52.595 357.529 51.4266 364.345 51.4266C373.953 51.4266 381.288 53.8933 386.417 58.762C391.545 63.6955 394.077 69.9922 394.077 77.7171V135.427H379.86V124.781C378.432 128.351 375.576 131.467 371.162 134.128C366.877 136.66 361.749 137.893 355.647 137.893L355.712 137.764Z" fill="#888888"/>
<path d="M211.73 135.362V53.6986H225.947V62.8517C227.05 59.6708 229.452 56.9444 233.152 54.6724C236.852 52.4003 241.137 51.2319 246.07 51.2319C251.004 51.2319 255.288 52.2705 259.313 54.3478C263.338 56.4251 265.934 59.541 267.168 63.6955C268.596 59.8656 271.192 56.8795 275.022 54.6724C278.917 52.4003 283.331 51.2319 288.135 51.2319C296.444 51.2319 302.741 53.6337 307.09 58.4374C311.44 63.2411 313.647 70.1871 313.647 79.4049V135.362H299.106V81.3524C299.106 75.8995 297.937 71.8099 295.535 69.0835C293.263 66.2272 289.888 64.7991 285.409 64.7991C280.93 64.7991 276.71 66.5518 273.984 70.0572C271.387 73.4328 270.089 78.4312 270.089 84.9227V135.297H255.548V81.2874C255.548 75.8346 254.379 71.745 251.978 69.0186C249.705 66.1623 246.33 64.7342 241.851 64.7342C237.372 64.7342 233.152 66.4869 230.426 69.9923C227.829 73.3679 226.531 78.3663 226.531 84.8578V135.232H211.99L211.73 135.362Z" fill="#888888"/>
<path d="M156.098 164.768C145.971 164.768 137.727 162.431 131.365 157.757C125.069 153.083 120.979 146.527 119.291 138.153L133.508 135.037C134.676 140.36 137.273 144.515 141.168 147.436C145.063 150.487 150.061 152.045 156.033 152.045C162.005 152.045 168.627 150.162 172.197 146.462C175.897 142.892 177.78 137.439 177.78 130.298V117.38C176.157 121.405 173.106 124.716 168.627 127.182C164.277 129.714 159.344 130.947 153.891 130.947C148.438 130.947 140.389 129.325 134.936 126.014C129.483 122.638 125.199 117.964 122.148 111.927C119.097 105.955 117.539 99.0092 117.539 91.1545C117.539 83.2998 119.097 76.2241 122.148 70.187C125.199 64.2149 129.418 59.541 134.741 56.2952C140.194 52.9197 146.556 51.2319 153.891 51.2319C161.226 51.2319 164.277 52.4653 168.757 54.9969C173.365 57.3988 176.416 60.3849 178.104 64.0201V53.6986H192.321V130.233C192.321 137.439 190.893 143.606 188.036 148.734C185.18 153.992 181.025 157.952 175.573 160.678C170.25 163.405 163.693 164.768 155.968 164.768H156.098ZM155.774 117.964C162.784 117.964 168.302 115.498 172.457 110.629C176.741 105.695 178.818 99.204 178.818 91.1545C178.818 83.1051 176.676 76.4188 172.457 71.5503C168.172 66.6167 162.654 64.2149 155.774 64.2149C148.893 64.2149 143.18 66.6816 138.896 71.5503C134.741 76.4837 132.664 82.9752 132.664 91.1545C132.664 99.3338 134.806 105.695 139.025 110.629C143.31 115.563 148.828 117.964 155.709 117.964H155.774Z" fill="#888888"/>
<path d="M88.2619 135.362V53.6986H102.803V135.297H88.2619V135.362ZM88.1321 43.2473V20.0077H102.998V43.2473H88.1321Z" fill="#888888"/>
<path d="M4.65161 135.362V20.0077H20.0365V135.297H4.65161V135.362ZM7.76753 86.6105V72.7187H70.4105V86.6105H7.76753ZM7.76753 34.0942V20.0077H76.4476V34.0942H7.76753Z" fill="#888888"/>
</svg>
