
<svg width="262" height="51" viewBox="0 0 262 51" fill="none" xmlns="http://www.w3.org/2000/svg">
<g clip-path="url(#clip0_3_661)">
<mask id="mask0_3_661" style="mask-type:luminance" maskUnits="userSpaceOnUse" x="0" y="0" width="262" height="51">
<path d="M262 0H0V51H262V0Z" fill="white"/>
</mask>
<g mask="url(#mask0_3_661)">
<path fill-rule="evenodd" clip-rule="evenodd" d="M50.063 25.0169C50.063 11.2006 38.8559 0 25.0315 0C11.2072 0 0 11.2006 0 25.0169C0 38.8338 11.2072 50.0337 25.0315 50.0337C38.8559 50.0337 50.063 38.8338 50.063 25.0169ZM20.4755 11.1186C20.2787 11.5046 20.2787 12.0099 20.2787 13.0205V18.7483C20.2787 19.0007 20.2787 19.127 20.3106 19.2437C20.3388 19.347 20.3853 19.4446 20.4478 19.5317C20.5183 19.63 20.6163 19.7096 20.8124 19.8687L22.2621 21.0457C22.4984 21.2376 22.6165 21.3335 22.6594 21.449C22.697 21.5503 22.697 21.6617 22.6594 21.763C22.6165 21.8785 22.4984 21.9744 22.2621 22.1662L20.8124 23.3432C20.6163 23.5024 20.5183 23.5819 20.4478 23.6803C20.3853 23.7674 20.3388 23.8649 20.3106 23.9683C20.2787 24.085 20.2787 24.2112 20.2787 24.4637V37.013C20.2787 38.0236 20.2787 38.5289 20.4755 38.9149C20.6486 39.2545 20.9248 39.5305 21.2645 39.7035C21.6508 39.9002 22.1564 39.9002 23.1676 39.9002H26.8954C27.9066 39.9002 28.4122 39.9002 28.7985 39.7035C29.1382 39.5305 29.4144 39.2545 29.5875 38.9149C29.7843 38.5289 29.7843 38.0236 29.7843 37.013V31.2853C29.7843 31.0328 29.7843 30.9066 29.7524 30.7899C29.7242 30.6865 29.6777 30.589 29.6153 30.5018C29.5447 30.4035 29.4467 30.3239 29.2506 30.1648L27.8009 28.9878C27.5646 28.796 27.4465 28.7 27.4036 28.5845C27.366 28.4833 27.366 28.3719 27.4036 28.2706C27.4465 28.1551 27.5646 28.0592 27.8009 27.8673L29.2506 26.6903C29.4467 26.5312 29.5447 26.4516 29.6153 26.3533C29.6777 26.2662 29.7242 26.1686 29.7524 26.0652C29.7843 25.9485 29.7843 25.8223 29.7843 25.5699V13.0205C29.7843 12.0099 29.7843 11.5046 29.5875 11.1186C29.4144 10.7791 29.1382 10.503 28.7985 10.33C28.4122 10.1333 27.9066 10.1333 26.8954 10.1333H23.1676C22.1564 10.1333 21.6508 10.1333 21.2645 10.33C20.9248 10.503 20.6486 10.7791 20.4755 11.1186Z" fill="#888888"/>
<path d="M70.1577 39.9831C70.4057 39.9831 70.6068 39.7822 70.6068 39.5343V10.148C70.6068 9.90015 70.4057 9.69922 70.1577 9.69922H65.8245C65.6639 9.69922 65.517 9.78606 65.4288 9.92013C64.4352 11.43 62.5878 12.1905 60.0559 12.2697C59.8081 12.2774 59.6064 12.4775 59.6064 12.7254V17.1206C59.6064 17.3684 59.8075 17.5694 60.0555 17.5694H63.5575C63.8055 17.5694 64.0066 17.7703 64.0066 18.0181V39.5343C64.0066 39.7822 64.2076 39.9831 64.4556 39.9831H70.1577Z" fill="#888888"/>
<path d="M87.4573 15.7744C89.7948 15.7744 91.6741 17.0171 91.6741 20.1467C91.6741 23.1843 89.7948 24.519 87.4573 24.519H82.3696V15.7744H87.4573ZM87.4573 30.18C94.3325 30.18 98.3201 25.9918 98.3201 19.9626C98.3201 14.2556 94.3325 10.0674 87.4573 10.0674H76.2643C76.0163 10.0674 75.8152 10.2683 75.8152 10.5162V39.5343C75.8152 39.7822 76.0163 39.9831 76.2643 39.9831H81.9206C82.1685 39.9831 82.3696 39.7822 82.3696 39.5343V30.6287C82.3696 30.3809 82.5706 30.18 82.8186 30.18H87.4573Z" fill="#888888"/>
<path d="M108.486 35.7484C106.561 35.7484 105.369 34.8739 105.369 33.3091C105.369 31.9284 106.194 31.0079 108.165 31.0079H113.528V31.4681C113.528 34.1375 111.236 35.7484 108.486 35.7484ZM114.032 39.5338C114.032 39.7817 114.233 39.9826 114.481 39.9826H119.404C119.652 39.9826 119.853 39.7817 119.853 39.5338V26.5436C119.853 20.2843 116.324 16.6484 109.953 16.6484C105.222 16.6484 101.601 19.1745 100.116 23.2356C100.027 23.4795 100.175 23.7425 100.427 23.8044L105.387 25.0201C105.611 25.075 105.839 24.9506 105.926 24.7372C106.679 22.8948 107.934 21.8031 109.953 21.8031C112.061 21.8031 113.528 23.1838 113.528 25.6691V25.9913C113.528 26.6816 113.299 26.9578 112.474 26.9578H106.744C101.977 26.9578 99.0898 29.4891 99.0898 33.4932C99.0898 37.7734 102.39 40.5349 106.973 40.5349C109.28 40.5349 111.495 39.777 113.057 38.0892C113.364 37.7573 114.032 37.9596 114.032 38.4115V39.5338Z" fill="#888888"/>
<path d="M132.048 35.9325C129.821 35.9325 128.194 35.008 127.392 33.3093C127.294 33.1031 127.068 32.9832 126.847 33.0392L122.211 34.2127C121.973 34.2731 121.826 34.5147 121.897 34.75C123.071 38.648 126.996 40.5349 131.819 40.5349C138.006 40.5349 141.536 37.3592 141.536 33.033C141.536 24.6566 128.289 27.5101 128.289 23.3679C128.289 21.9872 129.435 21.1127 131.498 21.1127C133.551 21.1127 134.925 22.2346 135.584 23.9549C135.666 24.1683 135.885 24.3022 136.109 24.2597L140.841 23.364C141.094 23.3161 141.256 23.0651 141.183 22.8183C140.097 19.1537 137.047 16.6484 131.544 16.6484C125.494 16.6484 122.285 19.8701 122.285 23.9202C122.285 32.5727 135.577 29.9954 135.577 33.5852C135.577 35.012 134.386 35.9325 132.048 35.9325Z" fill="#888888"/>
<path d="M152.64 35.9325C150.412 35.9325 148.785 35.008 147.983 33.3093C147.886 33.1031 147.66 32.9832 147.439 33.0392L142.803 34.2127C142.564 34.2731 142.418 34.5147 142.488 34.75C143.662 38.648 147.588 40.5349 152.41 40.5349C158.598 40.5349 162.127 37.3592 162.127 33.033C162.127 24.6566 148.881 27.5101 148.881 23.3679C148.881 21.9872 150.027 21.1127 152.09 21.1127C154.142 21.1127 155.517 22.2346 156.176 23.9549C156.257 24.1683 156.476 24.3022 156.701 24.2597L161.433 23.364C161.686 23.3161 161.847 23.0651 161.774 22.8183C160.689 19.1537 157.639 16.6484 152.135 16.6484C146.085 16.6484 142.877 19.8701 142.877 23.9202C142.877 32.5727 156.169 29.9954 156.169 33.5852C156.169 35.012 154.977 35.9325 152.64 35.9325Z" fill="#888888"/>
<path d="M167.922 39.6404C167.97 39.8415 168.151 39.9831 168.358 39.9831H175.487C175.695 39.9831 175.876 39.8398 175.924 39.637L179.555 24.1968L183.187 39.637C183.234 39.8398 183.415 39.9831 183.624 39.9831H190.983C191.189 39.9831 191.369 39.842 191.419 39.6412L196.79 17.7569C196.86 17.4741 196.646 17.2012 196.354 17.2012H191.288C191.075 17.2012 190.891 17.3506 190.848 17.559L187.256 34.9204L182.804 17.5387C182.753 17.3401 182.574 17.2012 182.369 17.2012H176.702C176.494 17.2012 176.313 17.3439 176.265 17.5461L172.13 34.9204L168.583 17.5601C168.54 17.3512 168.356 17.2012 168.143 17.2012H163.03C162.739 17.2012 162.525 17.4735 162.594 17.756L167.922 39.6404Z" fill="#888888"/>
<path d="M208.9 40.5349C215.775 40.5349 220.496 35.1961 220.496 28.6146C220.496 21.9872 215.775 16.6484 208.9 16.6484C202.071 16.6484 197.304 21.9872 197.304 28.6146C197.304 35.1961 202.071 40.5349 208.9 40.5349ZM208.9 35.058C206.058 35.058 203.858 32.6648 203.858 28.6146C203.858 24.5645 206.058 22.1252 208.9 22.1252C211.742 22.1252 213.988 24.5645 213.988 28.6146C213.988 32.6648 211.742 35.058 208.9 35.058Z" fill="#888888"/>
<path d="M229.537 27.9243C229.537 24.0122 231.508 23.0917 234.533 23.0917C235.113 23.0917 235.75 23.1493 236.354 23.2644C236.61 23.3132 236.863 23.1499 236.908 22.8935L237.868 17.4735C237.902 17.2831 237.811 17.0901 237.633 17.0143C237.081 16.7796 236.399 16.6484 235.587 16.6484C232.516 16.6484 230.133 18.4433 228.987 22.0792V17.6494C228.987 17.4016 228.786 17.2007 228.538 17.2007H223.569C223.321 17.2007 223.12 17.4016 223.12 17.6494V39.5338C223.12 39.7817 223.321 39.9826 223.569 39.9826H229.088C229.336 39.9826 229.537 39.7817 229.537 39.5338V27.9243Z" fill="#888888"/>
<path d="M249.727 35.196C246.427 35.196 244.685 32.4806 244.685 28.6145C244.685 24.7485 246.427 21.9871 249.727 21.9871C253.027 21.9871 254.769 24.7485 254.769 28.6145C254.769 32.4806 253.027 35.196 249.727 35.196ZM255.136 39.5337C255.136 39.7816 255.337 39.9825 255.585 39.9825H260.737C260.985 39.9825 261.186 39.7816 261.186 39.5337V10.5825C261.186 10.3347 260.985 10.1338 260.737 10.1338H255.401C255.153 10.1338 254.952 10.3347 254.952 10.5825V20.3762C253.532 17.7068 251.148 16.6483 248.123 16.6483C242.21 16.6483 238.177 21.803 238.177 28.6145C238.177 35.4261 242.21 40.5348 248.123 40.5348C251.331 40.5348 253.807 39.2461 255.136 35.9324V39.5337Z" fill="#888888"/>
</g>
</g>
<defs>
<clipPath id="clip0_3_661">
<rect width="262" height="51" fill="white"/>
</clipPath>
</defs>
</svg>
