<svg xmlns="http://www.w3.org/2000/svg" viewBox="0 0 64 64" width="1em" style="width:16px;height:16px;fill:var(--color-icon)" class="NotionIconSvgWrapper_icon__In1uC"><defs fill="currentColor"></defs><path d="m20,19.24l2.16,5.76h-4.32l2.16-5.76Zm5.95,4.62c2.49-3.27,6.07-5.64,10.5-6.87-2.61-5.68-8.42-8.99-16.45-8.99C8.89,8,2,14.32,2,24.5c0,5.19,1.8,9.37,5.03,12.22l-5.03,5.03,1.5,2.25c4.06,0,7.8-1.36,10.81-3.63,1.74.41,3.64.63,5.69.63.82,0,1.61-.05,2.39-.11-.25-1.39-.39-2.85-.39-4.39,0-2.73.43-5.23,1.22-7.5h-6.88l-1.12,3h-4.22l6-16h6l2.95,7.86Zm18.05,13.46c.99-.9,1.84-1.99,2.4-3.32h-4.79c.56,1.33,1.41,2.42,2.4,3.32Zm12.97,11.4l5.03,5.03-1.5,2.25c-4.06,0-7.8-1.36-10.81-3.63-1.74.41-3.64.63-5.69.63-11.11,0-18-6.32-18-16.5s6.89-16.5,18-16.5,18,6.32,18,16.5c0,5.19-1.8,9.37-5.03,12.22Zm-3.97-18.72h-7v-3h-4v3h-7v4h2.49c.58,1.97,1.68,3.86,3.22,5.52-2.76,1.36-5.38,1.74-5.38,1.74l1.4,3.75c2.78-.5,5.21-1.48,7.26-2.78,2.05,1.3,4.49,2.29,7.26,2.78l1.4-3.75s-2.62-.38-5.38-1.74c1.55-1.66,2.64-3.55,3.22-5.52h2.49v-4Z" fill="currentColor"></path></svg>