<svg xmlns="http://www.w3.org/2000/svg" viewBox="0 0 64 64" width="1em" class="NotionIconSvgWrapper_icon__In1uC" style="fill: var(--color-blue-500); color: var(--color-blue-500);"><defs fill="blue"></defs><path d="m53,30c-.66,0-1.3.07-1.92.18l-1.42-3.79c1.08-.25,2.19-.39,3.34-.39v-3c0-7.4-4.6-12-12-12h-9v4h9.11l.91,2.44c-2.93,1.37-5.56,3.26-7.77,5.56h-7.87l-1.5-4h-11.89v4c3.55,0,6.4.95,8.59,2.86l-4.98,5.69c-1.64-.98-3.56-1.55-5.61-1.55-6.08,0-11,4.92-11,11s4.92,11,11,11c5.39,0,9.87-3.88,10.81-9h16.19v-2c0-5.72,3.2-10.69,7.91-13.22l1.43,3.8c-3.19,1.93-5.33,5.42-5.33,9.42,0,6.08,4.92,11,11,11s11-4.92,11-11-4.92-11-11-11Zm-33.38,4.18l4.51-5.16c.44.77.84,1.6,1.18,2.51l2.8,7.47h-6.3c-.33-1.8-1.1-3.44-2.19-4.82Z" fill="blue"></path></svg>