<svg height="22px" xmlns="http://www.w3.org/2000/svg" viewBox="0 0 64 64" width="22px" class="NotionIconSvgWrapper_icon__In1uC"><defs fill="currentColor"></defs><path d="m36,32c0,2.21-1.79,4-4,4s-4-1.79-4-4,1.79-4,4-4,4,1.79,4,4Zm20,0c0,13.25-10.75,24-24,24s-24-10.75-24-24,10.75-24,24-24,24,10.75,24,24Zm-6,0c0-9.94-8.06-18-18-18s-18,8.06-18,18,8.06,18,18,18,18-8.06,18-18Zm-4,0c0,7.73-6.27,14-14,14s-14-6.27-14-14,6.27-14,14-14,14,6.27,14,14Zm-6,0c0-4.42-3.58-8-8-8s-8,3.58-8,8,3.58,8,8,8,8-3.58,8-8Z" fill="currentColor"></path></svg>