<svg width="48" height="44" viewBox="0 0 48 44" fill="none" xmlns="http://www.w3.org/2000/svg"><path fill-rule="evenodd" clip-rule="evenodd" d="M45.8489 1.99925C47.3533 3.50797 47.6317 5.78841 46.8844 7.79069L46.875 7.81582L33.2794 41.138C32.78 42.3926 31.6142 43.1818 30.4408 43.4579C29.2043 43.7488 27.7637 43.5314 26.5489 42.5697L26.5066 42.5361L21.3392 37.9073L18.2839 41.8345C16.3627 44.2991 12.4233 43.3269 11.8797 40.2441L9.5409 26.9798L2.0075 19.9742L1.9806 19.947C0.994318 18.9471 0.69584 17.5189 1.28145 16.2261C1.82164 15.0335 2.96883 14.2475 4.30593 13.8821L39.4024 1.19219C41.8974 0.170435 44.2853 0.431298 45.8489 1.99925Z" fill="white"></path><path d="M4.83743 15.5786C2.78804 16.1073 2.24956 17.6904 3.24514 18.6997L11.048 25.9558C11.1395 26.0363 11.1968 26.142 11.2182 26.2637L13.629 39.9357C13.9047 41.4995 15.9058 41.9963 16.8831 40.7426L20.8618 35.6285C20.9964 35.4599 21.2434 35.4357 21.4043 35.5811L27.6514 41.1771C29.172 42.3809 31.1577 41.6789 31.6316 40.4753L45.2205 7.16969C46.3311 4.19363 44.1577 1.14247 40.043 2.84925" fill="black"></path><path d="M15.2148 23.0069C22.8521 18.4982 28.3617 14.1962 35.043 10.1966C35.6883 9.81036 36.2506 10.6091 35.6858 11.1057C34.097 12.5029 32.5619 13.8606 32.1932 14.2128C31.3658 15.0032 22.1271 22.916 22.1271 22.916L17.549 27.1068C19.5029 29.8905 27.04 35.6164 29.0828 36.3979C34.3094 26.0476 37.8639 17.1707 41.5232 7.2778C41.8042 6.51793 41.0666 5.77861 40.3055 6.05637L18.3138 14.0822L8.38613 18.0884L15.2148 23.0069Z" fill="white"></path></svg>